<mxfile host="Electron" agent="Mozilla/5.0 (Windows NT 10.0; Win64; x64) AppleWebKit/537.36 (KHTML, like Gecko) draw.io/26.0.16 Chrome/132.0.6834.196 Electron/34.2.0 Safari/537.36" version="26.0.16">
  <diagram name="Page-1" id="_7wc2hn2l1cC7vxb_yL7">
    <mxGraphModel dx="4207" dy="2097" grid="1" gridSize="10" guides="1" tooltips="1" connect="1" arrows="1" fold="1" page="1" pageScale="1" pageWidth="3300" pageHeight="2339" math="0" shadow="0">
      <root>
        <mxCell id="0" />
        <mxCell id="1" parent="0" />
        <mxCell id="yzspcTBZxFpjvbG_T-uf-682" value="" style="group;fontSize=14;strokeWidth=3;strokeColor=default;" parent="1" vertex="1" connectable="0">
          <mxGeometry x="2530" y="2096.41" width="750" height="223.89" as="geometry" />
        </mxCell>
        <mxCell id="yzspcTBZxFpjvbG_T-uf-683" style="vsdxID=8;edgeStyle=none;startArrow=none;endArrow=none;startSize=5;endSize=5;strokeColor=#000000;spacingTop=0;spacingBottom=0;spacingLeft=0;spacingRight=0;verticalAlign=middle;html=1;labelBackgroundColor=#ffffff;rounded=0;fontSize=14;" parent="yzspcTBZxFpjvbG_T-uf-682" edge="1">
          <mxGeometry relative="1" as="geometry">
            <mxPoint as="offset" />
            <Array as="points" />
            <mxPoint as="sourcePoint" />
            <mxPoint x="750.0000000000006" as="targetPoint" />
          </mxGeometry>
        </mxCell>
        <mxCell id="yzspcTBZxFpjvbG_T-uf-684" style="vsdxID=6;edgeStyle=none;startArrow=none;endArrow=none;startSize=5;endSize=5;strokeColor=#000000;spacingTop=0;spacingBottom=0;spacingLeft=0;spacingRight=0;verticalAlign=middle;html=1;labelBackgroundColor=#ffffff;rounded=0;fontSize=14;" parent="yzspcTBZxFpjvbG_T-uf-682" edge="1">
          <mxGeometry relative="1" as="geometry">
            <mxPoint x="10" as="offset" />
            <Array as="points" />
            <mxPoint y="223.89" as="sourcePoint" />
            <mxPoint as="targetPoint" />
          </mxGeometry>
        </mxCell>
        <mxCell id="yzspcTBZxFpjvbG_T-uf-685" value="&lt;p style=&quot;margin: 0px; text-indent: 0px; direction: ltr;&quot;&gt;&lt;font style=&quot;font-family: &amp;quot;times new roman&amp;quot;; color: rgb(0, 0, 0); direction: ltr; letter-spacing: 0px; line-height: 140%; opacity: 1; font-size: 12px;&quot;&gt;&lt;i style=&quot;&quot;&gt;Разраб.&lt;/i&gt;&lt;/font&gt;&lt;font style=&quot;font-size: 14px; font-family: &amp;quot;times new roman&amp;quot;; color: rgb(0, 0, 0); direction: ltr; letter-spacing: 0px; line-height: 140%; opacity: 1;&quot;&gt;&lt;br style=&quot;font-size: 14px;&quot;&gt;&lt;/font&gt;&lt;/p&gt;" style="verticalAlign=middle;align=center;vsdxID=41;fillColor=none;gradientColor=none;shape=stencil(nZBLDoAgDERP0z3SIyjew0SURgSD+Lu9kMZoXLhwN9O+tukAlrNpJg1SzDH4QW/URgNYgZTkjA4UkwJUgGXng+6DX1zLfmoymdXo17xh5zmRJ6Q42BWCfc2oJfdAr+Yv+AP9Cb7OJ3H/2JG1HNGz/84klThPVCc=);strokeColor=none;labelBackgroundColor=none;rounded=0;html=1;whiteSpace=wrap;fontSize=14;" parent="yzspcTBZxFpjvbG_T-uf-682" vertex="1">
          <mxGeometry y="101.76818181818182" width="75.00000000000003" height="20.35363636363637" as="geometry" />
        </mxCell>
        <mxCell id="yzspcTBZxFpjvbG_T-uf-686" value="&lt;p style=&quot;margin: 0px; text-indent: 0px; direction: ltr;&quot;&gt;&lt;font style=&quot;font-family: &amp;quot;times new roman&amp;quot;; color: rgb(0, 0, 0); direction: ltr; letter-spacing: 0px; line-height: 140%; opacity: 1; font-size: 12px;&quot;&gt;&lt;i style=&quot;&quot;&gt;Подп.&lt;/i&gt;&lt;/font&gt;&lt;font style=&quot;font-size: 14px; font-family: &amp;quot;times new roman&amp;quot;; color: rgb(0, 0, 0); direction: ltr; letter-spacing: 0px; line-height: 140%; opacity: 1;&quot;&gt;&lt;br style=&quot;font-size: 14px;&quot;&gt;&lt;/font&gt;&lt;/p&gt;" style="verticalAlign=middle;align=center;vsdxID=45;fillColor=none;gradientColor=none;shape=stencil(nZBLDoAgDERP0z3SIyjew0SURgSD+Lu9kMZoXLhwN9O+tukAlrNpJg1SzDH4QW/URgNYgZTkjA4UkwJUgGXng+6DX1zLfmoymdXo17xh5zmRJ6Q42BWCfc2oJfdAr+Yv+AP9Cb7OJ3H/2JG1HNGz/84klThPVCc=);strokeColor=none;labelBackgroundColor=none;rounded=0;html=1;whiteSpace=wrap;fontSize=14;" parent="yzspcTBZxFpjvbG_T-uf-682" vertex="1">
          <mxGeometry x="171.57534246575344" y="81" width="64.28571428571432" height="20.35363636363637" as="geometry" />
        </mxCell>
        <mxCell id="yzspcTBZxFpjvbG_T-uf-687" value="&lt;p style=&quot;margin: 0px; text-indent: 0px; direction: ltr;&quot;&gt;&lt;font style=&quot;font-family: &amp;quot;times new roman&amp;quot;; color: rgb(0, 0, 0); direction: ltr; letter-spacing: 0px; line-height: 140%; opacity: 1; font-size: 12px;&quot;&gt;&lt;i style=&quot;&quot;&gt;Лист&lt;/i&gt;&lt;/font&gt;&lt;font style=&quot;font-size: 14px; font-family: &amp;quot;times new roman&amp;quot;; color: rgb(0, 0, 0); direction: ltr; letter-spacing: 0px; line-height: 140%; opacity: 1;&quot;&gt;&lt;br style=&quot;font-size: 14px;&quot;&gt;&lt;/font&gt;&lt;/p&gt;" style="verticalAlign=middle;align=center;vsdxID=46;fillColor=none;gradientColor=none;shape=stencil(nZBLDoAgDERP0z3SIyjew0SURgSD+Lu9kMZoXLhwN9O+tukAlrNpJg1SzDH4QW/URgNYgZTkjA4UkwJUgGXng+6DX1zLfmoymdXo17xh5zmRJ6Q42BWCfc2oJfdAr+Yv+AP9Cb7OJ3H/2JG1HNGz/84klThPVCc=);strokeColor=none;labelBackgroundColor=none;rounded=0;html=1;whiteSpace=wrap;fontSize=14;" parent="yzspcTBZxFpjvbG_T-uf-682" vertex="1">
          <mxGeometry x="535.7142857142861" y="61.060909090909085" width="64.28571428571432" height="20.35363636363637" as="geometry" />
        </mxCell>
        <mxCell id="yzspcTBZxFpjvbG_T-uf-688" style="vsdxID=48;edgeStyle=none;startArrow=none;endArrow=none;startSize=5;endSize=5;strokeColor=#000000;spacingTop=0;spacingBottom=0;spacingLeft=0;spacingRight=0;verticalAlign=middle;html=1;labelBackgroundColor=#ffffff;rounded=0;fontSize=14;strokeWidth=3;" parent="yzspcTBZxFpjvbG_T-uf-682" edge="1">
          <mxGeometry relative="1" as="geometry">
            <mxPoint x="10" as="offset" />
            <Array as="points">
              <mxPoint x="621.4285714285719" y="152.65227272727273" />
            </Array>
            <mxPoint x="621.4285714285719" y="162.82909090909095" as="sourcePoint" />
            <mxPoint x="621.4285714285719" y="142.47545454545457" as="targetPoint" />
          </mxGeometry>
        </mxCell>
        <mxCell id="yzspcTBZxFpjvbG_T-uf-689" value="&lt;p style=&quot;margin: 0px; text-indent: 0px; direction: ltr;&quot;&gt;&lt;font style=&quot;font-family: &amp;quot;times new roman&amp;quot;; color: rgb(0, 0, 0); direction: ltr; letter-spacing: 0px; line-height: 140%; opacity: 1;&quot;&gt;&lt;i style=&quot;&quot;&gt;&lt;font style=&quot;font-size: 18px;&quot;&gt;ГУИР. 351001 026 СП&lt;/font&gt;&lt;/i&gt;&lt;br style=&quot;font-size: 14px&quot;&gt;&lt;/font&gt;&lt;/p&gt;" style="verticalAlign=middle;align=center;vsdxID=50;fillColor=none;gradientColor=none;shape=stencil(nZBLDoAgDERP0z3SIyjew0SURgSD+Lu9kMZoXLhwN9O+tukAlrNpJg1SzDH4QW/URgNYgZTkjA4UkwJUgGXng+6DX1zLfmoymdXo17xh5zmRJ6Q42BWCfc2oJfdAr+Yv+AP9Cb7OJ3H/2JG1HNGz/84klThPVCc=);strokeColor=none;labelBackgroundColor=none;rounded=0;html=1;whiteSpace=wrap;fontSize=14;" parent="yzspcTBZxFpjvbG_T-uf-682" vertex="1">
          <mxGeometry x="278.57142857142867" width="471.4285714285716" height="61.060909090909085" as="geometry" />
        </mxCell>
        <mxCell id="yzspcTBZxFpjvbG_T-uf-690" value="&lt;p style=&quot;margin: 0px; direction: ltr;&quot;&gt;&lt;font style=&quot;direction: ltr; letter-spacing: 0px; line-height: 21.6px; opacity: 1; font-size: 18px;&quot; face=&quot;times new roman, serif&quot;&gt;&lt;i&gt;Блок-схема алгоритма&lt;/i&gt;&lt;/font&gt;&lt;/p&gt;&lt;p style=&quot;margin: 0px; direction: ltr;&quot;&gt;&lt;font face=&quot;times new roman, serif&quot;&gt;&lt;span style=&quot;font-size: 18px;&quot;&gt;&lt;i&gt;addUserConfig&lt;/i&gt;&lt;/span&gt;&lt;/font&gt;&lt;/p&gt;" style="verticalAlign=middle;align=center;vsdxID=51;fillColor=none;gradientColor=none;shape=stencil(nZBLDoAgDERP0z3SIyjew0SURgSD+Lu9kMZoXLhwN9O+tukAlrNpJg1SzDH4QW/URgNYgZTkjA4UkwJUgGXng+6DX1zLfmoymdXo17xh5zmRJ6Q42BWCfc2oJfdAr+Yv+AP9Cb7OJ3H/2JG1HNGz/84klThPVCc=);strokeColor=none;labelBackgroundColor=none;rounded=0;html=1;whiteSpace=wrap;fontSize=14;" parent="yzspcTBZxFpjvbG_T-uf-682" vertex="1">
          <mxGeometry x="278.57142857142867" y="61.060909090909085" width="257.1428571428573" height="101.76818181818182" as="geometry" />
        </mxCell>
        <mxCell id="yzspcTBZxFpjvbG_T-uf-691" style="vsdxID=1;edgeStyle=none;startArrow=none;endArrow=none;startSize=5;endSize=5;strokeColor=#000000;spacingTop=0;spacingBottom=0;spacingLeft=0;spacingRight=0;verticalAlign=middle;html=1;labelBackgroundColor=#ffffff;rounded=0;fontSize=14;strokeWidth=3;" parent="yzspcTBZxFpjvbG_T-uf-682" edge="1">
          <mxGeometry relative="1" as="geometry">
            <mxPoint x="10" as="offset" />
            <Array as="points" />
            <mxPoint x="535.7142857142861" y="223.89" as="sourcePoint" />
            <mxPoint x="535.7142857142861" y="61.060909090909085" as="targetPoint" />
          </mxGeometry>
        </mxCell>
        <mxCell id="yzspcTBZxFpjvbG_T-uf-692" style="vsdxID=4;edgeStyle=none;startArrow=none;endArrow=none;startSize=5;endSize=5;strokeColor=#000000;spacingTop=0;spacingBottom=0;spacingLeft=0;spacingRight=0;verticalAlign=middle;html=1;labelBackgroundColor=#ffffff;rounded=0;fontSize=14;strokeWidth=3;" parent="yzspcTBZxFpjvbG_T-uf-682" edge="1">
          <mxGeometry relative="1" as="geometry">
            <mxPoint x="10" as="offset" />
            <Array as="points" />
            <mxPoint x="278.57142857142867" y="223.89" as="sourcePoint" />
            <mxPoint x="278.57142857142867" as="targetPoint" />
          </mxGeometry>
        </mxCell>
        <mxCell id="yzspcTBZxFpjvbG_T-uf-693" style="vsdxID=11;edgeStyle=none;startArrow=none;endArrow=none;startSize=5;endSize=5;strokeColor=#000000;spacingTop=0;spacingBottom=0;spacingLeft=0;spacingRight=0;verticalAlign=middle;html=1;labelBackgroundColor=#ffffff;rounded=0;fontSize=14;strokeWidth=3;" parent="yzspcTBZxFpjvbG_T-uf-682" edge="1">
          <mxGeometry relative="1" as="geometry">
            <Array as="points" />
            <mxPoint x="750.0000000000006" y="61.060909090909085" as="sourcePoint" />
            <mxPoint y="61.060909090909085" as="targetPoint" />
          </mxGeometry>
        </mxCell>
        <mxCell id="yzspcTBZxFpjvbG_T-uf-694" style="vsdxID=12;edgeStyle=none;startArrow=none;endArrow=none;startSize=5;endSize=5;strokeColor=#000000;spacingTop=0;spacingBottom=0;spacingLeft=0;spacingRight=0;verticalAlign=middle;html=1;labelBackgroundColor=#ffffff;rounded=0;fontSize=14;strokeWidth=3;" parent="yzspcTBZxFpjvbG_T-uf-682" edge="1">
          <mxGeometry relative="1" as="geometry">
            <Array as="points" />
            <mxPoint x="750.0000000000006" y="162.82909090909095" as="sourcePoint" />
            <mxPoint y="162.82909090909095" as="targetPoint" />
          </mxGeometry>
        </mxCell>
        <mxCell id="yzspcTBZxFpjvbG_T-uf-695" style="vsdxID=13;edgeStyle=none;startArrow=none;endArrow=none;startSize=5;endSize=5;strokeColor=#000000;spacingTop=0;spacingBottom=0;spacingLeft=0;spacingRight=0;verticalAlign=middle;html=1;labelBackgroundColor=#ffffff;rounded=0;fontSize=14;strokeWidth=1;" parent="yzspcTBZxFpjvbG_T-uf-682" edge="1">
          <mxGeometry relative="1" as="geometry">
            <Array as="points" />
            <mxPoint x="278.57142857142867" y="203.53636363636363" as="sourcePoint" />
            <mxPoint y="203.53636363636363" as="targetPoint" />
          </mxGeometry>
        </mxCell>
        <mxCell id="yzspcTBZxFpjvbG_T-uf-696" style="vsdxID=22;edgeStyle=none;startArrow=none;endArrow=none;startSize=5;endSize=5;strokeColor=#000000;spacingTop=0;spacingBottom=0;spacingLeft=0;spacingRight=0;verticalAlign=middle;html=1;labelBackgroundColor=#ffffff;rounded=0;fontSize=14;strokeWidth=1;" parent="yzspcTBZxFpjvbG_T-uf-682" edge="1">
          <mxGeometry relative="1" as="geometry">
            <Array as="points" />
            <mxPoint x="278.57142857142867" y="183.18272727272728" as="sourcePoint" />
            <mxPoint y="183.18272727272728" as="targetPoint" />
          </mxGeometry>
        </mxCell>
        <mxCell id="yzspcTBZxFpjvbG_T-uf-697" style="vsdxID=23;edgeStyle=none;startArrow=none;endArrow=none;startSize=5;endSize=5;strokeColor=#000000;spacingTop=0;spacingBottom=0;spacingLeft=0;spacingRight=0;verticalAlign=middle;html=1;labelBackgroundColor=#ffffff;rounded=0;fontSize=14;strokeWidth=1;" parent="yzspcTBZxFpjvbG_T-uf-682" edge="1">
          <mxGeometry relative="1" as="geometry">
            <Array as="points" />
            <mxPoint x="278.57142857142867" y="142.47545454545457" as="sourcePoint" />
            <mxPoint y="142.47545454545457" as="targetPoint" />
          </mxGeometry>
        </mxCell>
        <mxCell id="yzspcTBZxFpjvbG_T-uf-698" style="vsdxID=24;edgeStyle=none;startArrow=none;endArrow=none;startSize=5;endSize=5;strokeColor=#000000;spacingTop=0;spacingBottom=0;spacingLeft=0;spacingRight=0;verticalAlign=middle;html=1;labelBackgroundColor=#ffffff;rounded=0;fontSize=14;strokeWidth=1;" parent="yzspcTBZxFpjvbG_T-uf-682" edge="1">
          <mxGeometry relative="1" as="geometry">
            <Array as="points" />
            <mxPoint x="278.57142857142867" y="122.12181818181817" as="sourcePoint" />
            <mxPoint y="122.12181818181817" as="targetPoint" />
          </mxGeometry>
        </mxCell>
        <mxCell id="yzspcTBZxFpjvbG_T-uf-699" style="vsdxID=25;edgeStyle=none;startArrow=none;endArrow=none;startSize=5;endSize=5;strokeColor=#000000;spacingTop=0;spacingBottom=0;spacingLeft=0;spacingRight=0;verticalAlign=middle;html=1;labelBackgroundColor=#ffffff;rounded=0;fontSize=14;strokeWidth=3;" parent="yzspcTBZxFpjvbG_T-uf-682" edge="1">
          <mxGeometry relative="1" as="geometry">
            <Array as="points" />
            <mxPoint x="278.57142857142867" y="101.76818181818182" as="sourcePoint" />
            <mxPoint y="101.76818181818182" as="targetPoint" />
          </mxGeometry>
        </mxCell>
        <mxCell id="yzspcTBZxFpjvbG_T-uf-700" style="vsdxID=26;edgeStyle=none;startArrow=none;endArrow=none;startSize=5;endSize=5;strokeColor=#000000;spacingTop=0;spacingBottom=0;spacingLeft=0;spacingRight=0;verticalAlign=middle;html=1;labelBackgroundColor=#ffffff;rounded=0;fontSize=14;strokeWidth=3;" parent="yzspcTBZxFpjvbG_T-uf-682" edge="1">
          <mxGeometry relative="1" as="geometry">
            <Array as="points" />
            <mxPoint x="278.57142857142867" y="81.41454545454548" as="sourcePoint" />
            <mxPoint y="81.41454545454548" as="targetPoint" />
          </mxGeometry>
        </mxCell>
        <mxCell id="yzspcTBZxFpjvbG_T-uf-701" style="vsdxID=27;edgeStyle=none;startArrow=none;endArrow=none;startSize=5;endSize=5;strokeColor=#000000;spacingTop=0;spacingBottom=0;spacingLeft=0;spacingRight=0;verticalAlign=middle;html=1;labelBackgroundColor=#ffffff;rounded=0;fontSize=14;strokeWidth=1;" parent="yzspcTBZxFpjvbG_T-uf-682" edge="1">
          <mxGeometry relative="1" as="geometry">
            <Array as="points" />
            <mxPoint x="278.57142857142867" y="40.70727272727274" as="sourcePoint" />
            <mxPoint y="40.70727272727274" as="targetPoint" />
          </mxGeometry>
        </mxCell>
        <mxCell id="yzspcTBZxFpjvbG_T-uf-702" style="vsdxID=28;edgeStyle=none;startArrow=none;endArrow=none;startSize=5;endSize=5;strokeColor=#000000;spacingTop=0;spacingBottom=0;spacingLeft=0;spacingRight=0;verticalAlign=middle;html=1;labelBackgroundColor=#ffffff;rounded=0;fontSize=14;strokeWidth=1;" parent="yzspcTBZxFpjvbG_T-uf-682" edge="1">
          <mxGeometry relative="1" as="geometry">
            <Array as="points" />
            <mxPoint x="278.57142857142867" y="20.35363636363637" as="sourcePoint" />
            <mxPoint y="20.35363636363637" as="targetPoint" />
          </mxGeometry>
        </mxCell>
        <mxCell id="yzspcTBZxFpjvbG_T-uf-703" style="vsdxID=29;edgeStyle=none;startArrow=none;endArrow=none;startSize=5;endSize=5;strokeColor=#000000;spacingTop=0;spacingBottom=0;spacingLeft=0;spacingRight=0;verticalAlign=middle;html=1;labelBackgroundColor=#ffffff;rounded=0;fontSize=14;strokeWidth=3;" parent="yzspcTBZxFpjvbG_T-uf-682" edge="1">
          <mxGeometry relative="1" as="geometry">
            <Array as="points" />
            <mxPoint x="750.0000000000006" y="142.47545454545457" as="sourcePoint" />
            <mxPoint x="535.7142857142861" y="142.47545454545457" as="targetPoint" />
          </mxGeometry>
        </mxCell>
        <mxCell id="yzspcTBZxFpjvbG_T-uf-704" style="vsdxID=30;edgeStyle=none;startArrow=none;endArrow=none;startSize=5;endSize=5;strokeColor=#000000;spacingTop=0;spacingBottom=0;spacingLeft=0;spacingRight=0;verticalAlign=middle;html=1;labelBackgroundColor=#ffffff;rounded=0;fontSize=14;strokeWidth=3;" parent="yzspcTBZxFpjvbG_T-uf-682" edge="1">
          <mxGeometry relative="1" as="geometry">
            <Array as="points" />
            <mxPoint x="750.0000000000006" y="81.41454545454548" as="sourcePoint" />
            <mxPoint x="535.7142857142861" y="81.41454545454548" as="targetPoint" />
          </mxGeometry>
        </mxCell>
        <mxCell id="yzspcTBZxFpjvbG_T-uf-705" style="vsdxID=31;edgeStyle=none;startArrow=none;endArrow=none;startSize=5;endSize=5;strokeColor=#000000;spacingTop=0;spacingBottom=0;spacingLeft=0;spacingRight=0;verticalAlign=middle;html=1;labelBackgroundColor=#ffffff;rounded=0;fontSize=14;strokeWidth=3;" parent="yzspcTBZxFpjvbG_T-uf-682" edge="1">
          <mxGeometry relative="1" as="geometry">
            <mxPoint x="10" as="offset" />
            <Array as="points" />
            <mxPoint x="235.7142857142858" y="223.89" as="sourcePoint" />
            <mxPoint x="235.7142857142858" as="targetPoint" />
          </mxGeometry>
        </mxCell>
        <mxCell id="yzspcTBZxFpjvbG_T-uf-706" style="vsdxID=33;edgeStyle=none;startArrow=none;endArrow=none;startSize=5;endSize=5;strokeColor=#000000;spacingTop=0;spacingBottom=0;spacingLeft=0;spacingRight=0;verticalAlign=middle;html=1;labelBackgroundColor=#ffffff;rounded=0;fontSize=14;strokeWidth=3;" parent="yzspcTBZxFpjvbG_T-uf-682" edge="1">
          <mxGeometry relative="1" as="geometry">
            <mxPoint x="10" as="offset" />
            <Array as="points" />
            <mxPoint x="171.42857142857153" y="223.89" as="sourcePoint" />
            <mxPoint x="171.42857142857153" as="targetPoint" />
          </mxGeometry>
        </mxCell>
        <mxCell id="yzspcTBZxFpjvbG_T-uf-707" style="vsdxID=34;edgeStyle=none;startArrow=none;endArrow=none;startSize=5;endSize=5;strokeColor=#000000;spacingTop=0;spacingBottom=0;spacingLeft=0;spacingRight=0;verticalAlign=middle;html=1;labelBackgroundColor=#ffffff;rounded=0;fontSize=14;strokeWidth=3;" parent="yzspcTBZxFpjvbG_T-uf-682" edge="1">
          <mxGeometry relative="1" as="geometry">
            <mxPoint x="10" as="offset" />
            <Array as="points" />
            <mxPoint x="75.00000000000003" y="223.89" as="sourcePoint" />
            <mxPoint x="75.00000000000003" as="targetPoint" />
          </mxGeometry>
        </mxCell>
        <mxCell id="yzspcTBZxFpjvbG_T-uf-708" style="vsdxID=35;edgeStyle=none;startArrow=none;endArrow=none;startSize=5;endSize=5;strokeColor=#000000;spacingTop=0;spacingBottom=0;spacingLeft=0;spacingRight=0;verticalAlign=middle;html=1;labelBackgroundColor=#ffffff;rounded=0;fontSize=14;strokeWidth=3;" parent="yzspcTBZxFpjvbG_T-uf-682" edge="1">
          <mxGeometry relative="1" as="geometry">
            <mxPoint x="10" as="offset" />
            <Array as="points" />
            <mxPoint x="32.14285714285716" y="101.76818181818182" as="sourcePoint" />
            <mxPoint x="32.14285714285716" as="targetPoint" />
          </mxGeometry>
        </mxCell>
        <mxCell id="yzspcTBZxFpjvbG_T-uf-709" style="vsdxID=36;edgeStyle=none;startArrow=none;endArrow=none;startSize=5;endSize=5;strokeColor=#000000;spacingTop=0;spacingBottom=0;spacingLeft=0;spacingRight=0;verticalAlign=middle;html=1;labelBackgroundColor=#ffffff;rounded=0;fontSize=14;strokeWidth=3;" parent="yzspcTBZxFpjvbG_T-uf-682" edge="1">
          <mxGeometry relative="1" as="geometry">
            <mxPoint x="10" as="offset" />
            <Array as="points" />
            <mxPoint x="600.0000000000002" y="142.47545454545457" as="sourcePoint" />
            <mxPoint x="600.0000000000002" y="61.060909090909085" as="targetPoint" />
          </mxGeometry>
        </mxCell>
        <mxCell id="yzspcTBZxFpjvbG_T-uf-710" style="vsdxID=38;edgeStyle=none;startArrow=none;endArrow=none;startSize=5;endSize=5;strokeColor=#000000;spacingTop=0;spacingBottom=0;spacingLeft=0;spacingRight=0;verticalAlign=middle;html=1;labelBackgroundColor=#ffffff;rounded=0;fontSize=14;strokeWidth=3;" parent="yzspcTBZxFpjvbG_T-uf-682" edge="1">
          <mxGeometry relative="1" as="geometry">
            <mxPoint x="10" as="offset" />
            <Array as="points" />
            <mxPoint x="664.2857142857144" y="142.47545454545457" as="sourcePoint" />
            <mxPoint x="664.2857142857144" y="61.060909090909085" as="targetPoint" />
          </mxGeometry>
        </mxCell>
        <mxCell id="yzspcTBZxFpjvbG_T-uf-711" style="vsdxID=39;edgeStyle=none;startArrow=none;endArrow=none;startSize=5;endSize=5;strokeColor=#000000;spacingTop=0;spacingBottom=0;spacingLeft=0;spacingRight=0;verticalAlign=middle;html=1;labelBackgroundColor=#ffffff;rounded=0;fontSize=14;" parent="yzspcTBZxFpjvbG_T-uf-682" edge="1">
          <mxGeometry relative="1" as="geometry">
            <mxPoint x="10" as="offset" />
            <Array as="points" />
            <mxPoint x="557.1428571428573" y="142.47545454545457" as="sourcePoint" />
            <mxPoint x="557.1428571428573" y="81.41454545454548" as="targetPoint" />
          </mxGeometry>
        </mxCell>
        <mxCell id="yzspcTBZxFpjvbG_T-uf-712" style="vsdxID=40;edgeStyle=none;startArrow=none;endArrow=none;startSize=5;endSize=5;strokeColor=#000000;spacingTop=0;spacingBottom=0;spacingLeft=0;spacingRight=0;verticalAlign=middle;html=1;labelBackgroundColor=#ffffff;rounded=0;fontSize=14;" parent="yzspcTBZxFpjvbG_T-uf-682" edge="1">
          <mxGeometry relative="1" as="geometry">
            <mxPoint x="10" as="offset" />
            <Array as="points" />
            <mxPoint x="578.5714285714283" y="142.47545454545457" as="sourcePoint" />
            <mxPoint x="578.5714285714283" y="81.41454545454548" as="targetPoint" />
          </mxGeometry>
        </mxCell>
        <mxCell id="yzspcTBZxFpjvbG_T-uf-713" value="&lt;p style=&quot;margin: 0px; text-indent: 0px; direction: ltr;&quot;&gt;&lt;font style=&quot;font-family: &amp;quot;times new roman&amp;quot;; color: rgb(0, 0, 0); direction: ltr; letter-spacing: 0px; line-height: 140%; opacity: 1; font-size: 12px;&quot;&gt;&lt;i style=&quot;&quot;&gt;Лист&lt;/i&gt;&lt;/font&gt;&lt;font style=&quot;font-size: 14px; font-family: &amp;quot;times new roman&amp;quot;; color: rgb(0, 0, 0); direction: ltr; letter-spacing: 0px; line-height: 140%; opacity: 1;&quot;&gt;&lt;br style=&quot;font-size: 14px;&quot;&gt;&lt;/font&gt;&lt;/p&gt;" style="verticalAlign=middle;align=center;vsdxID=47;fillColor=none;gradientColor=none;shape=stencil(nZBLDoAgDERP0z3SIyjew0SURgSD+Lu9kMZoXLhwN9O+tukAlrNpJg1SzDH4QW/URgNYgZTkjA4UkwJUgGXng+6DX1zLfmoymdXo17xh5zmRJ6Q42BWCfc2oJfdAr+Yv+AP9Cb7OJ3H/2JG1HNGz/84klThPVCc=);strokeColor=none;labelBackgroundColor=none;rounded=0;html=1;whiteSpace=wrap;fontSize=14;" parent="yzspcTBZxFpjvbG_T-uf-682" vertex="1">
          <mxGeometry x="535.7142857142861" y="142.47545454545457" width="42.85714285714288" height="20.35363636363637" as="geometry" />
        </mxCell>
        <mxCell id="yzspcTBZxFpjvbG_T-uf-714" value="&lt;p style=&quot;margin: 0px; text-indent: 0px; direction: ltr;&quot;&gt;&lt;font style=&quot;font-family: &amp;quot;times new roman&amp;quot;; color: rgb(0, 0, 0); direction: ltr; letter-spacing: 0px; line-height: 140%; opacity: 1; font-size: 12px;&quot;&gt;&lt;i style=&quot;&quot;&gt;Листов&lt;/i&gt;&lt;/font&gt;&lt;font style=&quot;font-size: 14px; font-family: &amp;quot;times new roman&amp;quot;; color: rgb(0, 0, 0); direction: ltr; letter-spacing: 0px; line-height: 140%; opacity: 1;&quot;&gt;&lt;br style=&quot;font-size: 14px;&quot;&gt;&lt;/font&gt;&lt;/p&gt;" style="verticalAlign=middle;align=center;vsdxID=47;fillColor=none;gradientColor=none;shape=stencil(nZBLDoAgDERP0z3SIyjew0SURgSD+Lu9kMZoXLhwN9O+tukAlrNpJg1SzDH4QW/URgNYgZTkjA4UkwJUgGXng+6DX1zLfmoymdXo17xh5zmRJ6Q42BWCfc2oJfdAr+Yv+AP9Cb7OJ3H/2JG1HNGz/84klThPVCc=);strokeColor=none;labelBackgroundColor=none;rounded=0;html=1;whiteSpace=wrap;fontSize=14;" parent="yzspcTBZxFpjvbG_T-uf-682" vertex="1">
          <mxGeometry x="621.4285714285719" y="142.47545454545457" width="53.571428571428605" height="20.35363636363637" as="geometry" />
        </mxCell>
        <mxCell id="yzspcTBZxFpjvbG_T-uf-715" value="&lt;p style=&quot;margin: 0px; text-indent: 0px; direction: ltr;&quot;&gt;&lt;font style=&quot;font-family: &amp;quot;times new roman&amp;quot;; color: rgb(0, 0, 0); direction: ltr; letter-spacing: 0px; line-height: 140%; opacity: 1; font-size: 12px;&quot;&gt;&lt;i style=&quot;&quot;&gt;1&lt;/i&gt;&lt;/font&gt;&lt;font style=&quot;font-size: 14px; font-family: &amp;quot;times new roman&amp;quot;; color: rgb(0, 0, 0); direction: ltr; letter-spacing: 0px; line-height: 140%; opacity: 1;&quot;&gt;&lt;br style=&quot;font-size: 14px;&quot;&gt;&lt;/font&gt;&lt;/p&gt;" style="verticalAlign=middle;align=center;vsdxID=47;fillColor=none;gradientColor=none;shape=stencil(nZBLDoAgDERP0z3SIyjew0SURgSD+Lu9kMZoXLhwN9O+tukAlrNpJg1SzDH4QW/URgNYgZTkjA4UkwJUgGXng+6DX1zLfmoymdXo17xh5zmRJ6Q42BWCfc2oJfdAr+Yv+AP9Cb7OJ3H/2JG1HNGz/84klThPVCc=);strokeColor=none;labelBackgroundColor=none;rounded=0;html=1;whiteSpace=wrap;fontSize=14;" parent="yzspcTBZxFpjvbG_T-uf-682" vertex="1">
          <mxGeometry x="717.8571428571432" y="142.47545454545457" width="32.14285714285716" height="20.35363636363637" as="geometry" />
        </mxCell>
        <mxCell id="yzspcTBZxFpjvbG_T-uf-716" value="&lt;p style=&quot;margin: 0px; text-indent: 0px; direction: ltr;&quot;&gt;&lt;font style=&quot;font-family: &amp;quot;times new roman&amp;quot;; color: rgb(0, 0, 0); direction: ltr; letter-spacing: 0px; line-height: 140%; opacity: 1; font-size: 12px;&quot;&gt;&lt;i style=&quot;&quot;&gt;1&lt;/i&gt;&lt;/font&gt;&lt;font style=&quot;font-size: 14px; font-family: &amp;quot;times new roman&amp;quot;; color: rgb(0, 0, 0); direction: ltr; letter-spacing: 0px; line-height: 140%; opacity: 1;&quot;&gt;&lt;br style=&quot;font-size: 14px;&quot;&gt;&lt;/font&gt;&lt;/p&gt;" style="verticalAlign=middle;align=center;vsdxID=47;fillColor=none;gradientColor=none;shape=stencil(nZBLDoAgDERP0z3SIyjew0SURgSD+Lu9kMZoXLhwN9O+tukAlrNpJg1SzDH4QW/URgNYgZTkjA4UkwJUgGXng+6DX1zLfmoymdXo17xh5zmRJ6Q42BWCfc2oJfdAr+Yv+AP9Cb7OJ3H/2JG1HNGz/84klThPVCc=);strokeColor=none;labelBackgroundColor=none;rounded=0;html=1;whiteSpace=wrap;fontSize=14;" parent="yzspcTBZxFpjvbG_T-uf-682" vertex="1">
          <mxGeometry x="589.2857142857144" y="142.47545454545457" width="32.14285714285716" height="20.35363636363637" as="geometry" />
        </mxCell>
        <mxCell id="yzspcTBZxFpjvbG_T-uf-717" value="&lt;p style=&quot;margin: 0px; text-indent: 0px; direction: ltr;&quot;&gt;&lt;font style=&quot;font-family: &amp;quot;times new roman&amp;quot;; color: rgb(0, 0, 0); direction: ltr; letter-spacing: 0px; line-height: 140%; opacity: 1; font-size: 12px;&quot;&gt;&lt;i style=&quot;&quot;&gt;Масса&lt;/i&gt;&lt;/font&gt;&lt;font style=&quot;font-size: 14px; font-family: &amp;quot;times new roman&amp;quot;; color: rgb(0, 0, 0); direction: ltr; letter-spacing: 0px; line-height: 140%; opacity: 1;&quot;&gt;&lt;br style=&quot;font-size: 14px;&quot;&gt;&lt;/font&gt;&lt;/p&gt;" style="verticalAlign=middle;align=center;vsdxID=46;fillColor=none;gradientColor=none;shape=stencil(nZBLDoAgDERP0z3SIyjew0SURgSD+Lu9kMZoXLhwN9O+tukAlrNpJg1SzDH4QW/URgNYgZTkjA4UkwJUgGXng+6DX1zLfmoymdXo17xh5zmRJ6Q42BWCfc2oJfdAr+Yv+AP9Cb7OJ3H/2JG1HNGz/84klThPVCc=);strokeColor=none;labelBackgroundColor=none;rounded=0;html=1;whiteSpace=wrap;fontSize=14;" parent="yzspcTBZxFpjvbG_T-uf-682" vertex="1">
          <mxGeometry x="600.0000000000002" y="61.060909090909085" width="64.28571428571432" height="20.35363636363637" as="geometry" />
        </mxCell>
        <mxCell id="yzspcTBZxFpjvbG_T-uf-718" value="&lt;p style=&quot;margin: 0px; text-indent: 0px; direction: ltr;&quot;&gt;&lt;font style=&quot;font-family: &amp;quot;times new roman&amp;quot;; color: rgb(0, 0, 0); direction: ltr; letter-spacing: 0px; line-height: 140%; opacity: 1; font-size: 12px;&quot;&gt;&lt;i style=&quot;&quot;&gt;Масштаб&lt;/i&gt;&lt;/font&gt;&lt;font style=&quot;font-size: 14px; font-family: &amp;quot;times new roman&amp;quot;; color: rgb(0, 0, 0); direction: ltr; letter-spacing: 0px; line-height: 140%; opacity: 1;&quot;&gt;&lt;br style=&quot;font-size: 14px;&quot;&gt;&lt;/font&gt;&lt;/p&gt;" style="verticalAlign=middle;align=center;vsdxID=46;fillColor=none;gradientColor=none;shape=stencil(nZBLDoAgDERP0z3SIyjew0SURgSD+Lu9kMZoXLhwN9O+tukAlrNpJg1SzDH4QW/URgNYgZTkjA4UkwJUgGXng+6DX1zLfmoymdXo17xh5zmRJ6Q42BWCfc2oJfdAr+Yv+AP9Cb7OJ3H/2JG1HNGz/84klThPVCc=);strokeColor=none;labelBackgroundColor=none;rounded=0;html=1;whiteSpace=wrap;fontSize=14;" parent="yzspcTBZxFpjvbG_T-uf-682" vertex="1">
          <mxGeometry x="664.2857142857144" y="61.060909090909085" width="85.71428571428577" height="20.35363636363637" as="geometry" />
        </mxCell>
        <mxCell id="yzspcTBZxFpjvbG_T-uf-719" value="&lt;p style=&quot;margin: 0px; text-indent: 0px; direction: ltr;&quot;&gt;&lt;font style=&quot;font-family: &amp;quot;times new roman&amp;quot;; color: rgb(0, 0, 0); direction: ltr; letter-spacing: 0px; line-height: 140%; opacity: 1; font-size: 18px;&quot;&gt;&lt;i style=&quot;&quot;&gt;ПОИТ гр. 351001&lt;/i&gt;&lt;/font&gt;&lt;font style=&quot;font-size: 14px; font-family: &amp;quot;times new roman&amp;quot;; color: rgb(0, 0, 0); direction: ltr; letter-spacing: 0px; line-height: 140%; opacity: 1;&quot;&gt;&lt;br style=&quot;font-size: 14px&quot;&gt;&lt;/font&gt;&lt;/p&gt;" style="verticalAlign=middle;align=center;vsdxID=49;fillColor=none;gradientColor=none;shape=stencil(nZBLDoAgDERP0z3SIyjew0SURgSD+Lu9kMZoXLhwN9O+tukAlrNpJg1SzDH4QW/URgNYgZTkjA4UkwJUgGXng+6DX1zLfmoymdXo17xh5zmRJ6Q42BWCfc2oJfdAr+Yv+AP9Cb7OJ3H/2JG1HNGz/84klThPVCc=);strokeColor=none;labelBackgroundColor=none;rounded=0;html=1;whiteSpace=wrap;fontSize=14;strokeWidth=3;" parent="yzspcTBZxFpjvbG_T-uf-682" vertex="1">
          <mxGeometry x="535.7142857142861" y="162.82909090909095" width="214.28571428571442" height="61.060909090909085" as="geometry" />
        </mxCell>
        <mxCell id="yzspcTBZxFpjvbG_T-uf-720" value="&lt;p style=&quot;margin: 0px; text-indent: 0px; direction: ltr;&quot;&gt;&lt;font style=&quot;font-family: &amp;quot;times new roman&amp;quot;; color: rgb(0, 0, 0); direction: ltr; letter-spacing: 0px; line-height: 140%; opacity: 1; font-size: 12px;&quot;&gt;&lt;i style=&quot;&quot;&gt;Изм.&lt;/i&gt;&lt;/font&gt;&lt;font style=&quot;font-size: 14px; font-family: &amp;quot;times new roman&amp;quot;; color: rgb(0, 0, 0); direction: ltr; letter-spacing: 0px; line-height: 140%; opacity: 1;&quot;&gt;&lt;br style=&quot;font-size: 14px;&quot;&gt;&lt;/font&gt;&lt;/p&gt;" style="verticalAlign=middle;align=center;vsdxID=45;fillColor=none;gradientColor=none;shape=stencil(nZBLDoAgDERP0z3SIyjew0SURgSD+Lu9kMZoXLhwN9O+tukAlrNpJg1SzDH4QW/URgNYgZTkjA4UkwJUgGXng+6DX1zLfmoymdXo17xh5zmRJ6Q42BWCfc2oJfdAr+Yv+AP9Cb7OJ3H/2JG1HNGz/84klThPVCc=);strokeColor=none;labelBackgroundColor=none;rounded=0;html=1;whiteSpace=wrap;fontSize=14;" parent="yzspcTBZxFpjvbG_T-uf-682" vertex="1">
          <mxGeometry y="81.41454545454548" width="32.14285714285716" height="20.35363636363637" as="geometry" />
        </mxCell>
        <mxCell id="yzspcTBZxFpjvbG_T-uf-721" value="&lt;p style=&quot;margin: 0px ; text-indent: 0px ; direction: ltr&quot;&gt;&lt;font face=&quot;Times New Roman&quot;&gt;&lt;span style=&quot;font-size: 12px;&quot;&gt;&lt;i&gt;Шиманчук А.О.&lt;/i&gt;&lt;/span&gt;&lt;/font&gt;&lt;/p&gt;" style="verticalAlign=middle;align=center;vsdxID=41;fillColor=none;gradientColor=none;shape=stencil(nZBLDoAgDERP0z3SIyjew0SURgSD+Lu9kMZoXLhwN9O+tukAlrNpJg1SzDH4QW/URgNYgZTkjA4UkwJUgGXng+6DX1zLfmoymdXo17xh5zmRJ6Q42BWCfc2oJfdAr+Yv+AP9Cb7OJ3H/2JG1HNGz/84klThPVCc=);strokeColor=none;labelBackgroundColor=none;rounded=0;html=1;whiteSpace=wrap;fontSize=14;" parent="yzspcTBZxFpjvbG_T-uf-682" vertex="1">
          <mxGeometry x="75.00000000000003" y="101.76818181818182" width="96.42857142857143" height="20.35363636363637" as="geometry" />
        </mxCell>
        <mxCell id="yzspcTBZxFpjvbG_T-uf-722" value="&lt;font style=&quot;font-size: 12px;&quot; face=&quot;Times New Roman&quot;&gt;&lt;i style=&quot;&quot;&gt;Т.Контроль&lt;/i&gt;&lt;/font&gt;" style="text;html=1;align=center;verticalAlign=middle;whiteSpace=wrap;rounded=0;" parent="yzspcTBZxFpjvbG_T-uf-682" vertex="1">
          <mxGeometry y="142.47545454545457" width="75.00000000000003" height="20.35363636363637" as="geometry" />
        </mxCell>
        <mxCell id="yzspcTBZxFpjvbG_T-uf-723" value="&lt;p style=&quot;margin-left: 0 ; margin-right: 0 ; margin-top: 0px ; margin-bottom: 0px ; text-indent: 0 ; direction: ltr&quot;&gt;&lt;br&gt;&lt;/p&gt;" style="verticalAlign=middle;align=center;vsdxID=41;fillColor=none;gradientColor=none;shape=stencil(nZBLDoAgDERP0z3SIyjew0SURgSD+Lu9kMZoXLhwN9O+tukAlrNpJg1SzDH4QW/URgNYgZTkjA4UkwJUgGXng+6DX1zLfmoymdXo17xh5zmRJ6Q42BWCfc2oJfdAr+Yv+AP9Cb7OJ3H/2JG1HNGz/84klThPVCc=);strokeColor=none;labelBackgroundColor=none;rounded=0;html=1;whiteSpace=wrap;" parent="yzspcTBZxFpjvbG_T-uf-682" vertex="1">
          <mxGeometry x="75.00000000000003" y="142.47545454545457" width="96.42857142857143" height="20.35363636363637" as="geometry" />
        </mxCell>
        <mxCell id="yzspcTBZxFpjvbG_T-uf-724" value="&lt;p style=&quot;margin-left: 0 ; margin-right: 0 ; margin-top: 0px ; margin-bottom: 0px ; text-indent: 0 ; direction: ltr&quot;&gt;&lt;br&gt;&lt;/p&gt;" style="verticalAlign=middle;align=center;vsdxID=41;fillColor=none;gradientColor=none;shape=stencil(nZBLDoAgDERP0z3SIyjew0SURgSD+Lu9kMZoXLhwN9O+tukAlrNpJg1SzDH4QW/URgNYgZTkjA4UkwJUgGXng+6DX1zLfmoymdXo17xh5zmRJ6Q42BWCfc2oJfdAr+Yv+AP9Cb7OJ3H/2JG1HNGz/84klThPVCc=);strokeColor=none;labelBackgroundColor=none;rounded=0;html=1;whiteSpace=wrap;" parent="yzspcTBZxFpjvbG_T-uf-682" vertex="1">
          <mxGeometry x="75.00000000000003" y="162.82909090909095" width="96.42857142857143" height="20.35363636363637" as="geometry" />
        </mxCell>
        <mxCell id="yzspcTBZxFpjvbG_T-uf-725" value="&lt;font style=&quot;font-size: 12px;&quot; face=&quot;Times New Roman&quot;&gt;&lt;i style=&quot;&quot;&gt;Реценз.&lt;/i&gt;&lt;/font&gt;" style="text;html=1;align=center;verticalAlign=middle;whiteSpace=wrap;rounded=0;" parent="yzspcTBZxFpjvbG_T-uf-682" vertex="1">
          <mxGeometry y="183.18272727272728" width="75.00000000000003" height="20.35363636363637" as="geometry" />
        </mxCell>
        <mxCell id="yzspcTBZxFpjvbG_T-uf-726" value="&lt;font style=&quot;font-size: 12px;&quot; face=&quot;Times New Roman&quot;&gt;&lt;i style=&quot;&quot;&gt;Н.Контроль&lt;/i&gt;&lt;/font&gt;" style="text;html=1;align=center;verticalAlign=middle;whiteSpace=wrap;rounded=0;" parent="yzspcTBZxFpjvbG_T-uf-682" vertex="1">
          <mxGeometry y="162.82909090909095" width="75.00000000000003" height="20.35363636363637" as="geometry" />
        </mxCell>
        <mxCell id="yzspcTBZxFpjvbG_T-uf-727" value="&lt;font style=&quot;font-size: 12px;&quot; face=&quot;Times New Roman&quot;&gt;&lt;i style=&quot;&quot;&gt;Утв.&lt;/i&gt;&lt;/font&gt;" style="text;html=1;align=center;verticalAlign=middle;whiteSpace=wrap;rounded=0;" parent="yzspcTBZxFpjvbG_T-uf-682" vertex="1">
          <mxGeometry y="203.53636363636363" width="75.00000000000003" height="20.35363636363637" as="geometry" />
        </mxCell>
        <mxCell id="yzspcTBZxFpjvbG_T-uf-728" value="&lt;font style=&quot;&quot; face=&quot;Times New Roman&quot;&gt;У&lt;/font&gt;" style="text;html=1;align=center;verticalAlign=middle;resizable=0;points=[];autosize=1;strokeColor=none;fillColor=none;" parent="yzspcTBZxFpjvbG_T-uf-682" vertex="1">
          <mxGeometry x="551.7857142857148" y="99.73281818181819" width="30" height="30" as="geometry" />
        </mxCell>
        <mxCell id="yzspcTBZxFpjvbG_T-uf-729" style="vsdxID=56;edgeStyle=none;startArrow=none;endArrow=none;startSize=5;endSize=5;strokeColor=#000000;spacingTop=0;spacingBottom=0;spacingLeft=0;spacingRight=0;verticalAlign=middle;html=1;labelBackgroundColor=#ffffff;rounded=0;strokeWidth=3;" parent="1" edge="1">
          <mxGeometry relative="1" as="geometry">
            <mxPoint as="offset" />
            <Array as="points" />
            <mxPoint x="80" y="20.299999999999997" as="sourcePoint" />
            <mxPoint x="3280" y="20.299999999999997" as="targetPoint" />
          </mxGeometry>
        </mxCell>
        <mxCell id="yzspcTBZxFpjvbG_T-uf-731" style="vsdxID=54;edgeStyle=none;startArrow=none;endArrow=none;startSize=5;endSize=5;strokeColor=#000000;spacingTop=0;spacingBottom=0;spacingLeft=0;spacingRight=0;verticalAlign=middle;html=1;labelBackgroundColor=#ffffff;rounded=0;strokeWidth=3;" parent="1" edge="1">
          <mxGeometry relative="1" as="geometry">
            <mxPoint as="offset" />
            <Array as="points" />
            <mxPoint x="80" y="2320.3" as="sourcePoint" />
            <mxPoint x="3280" y="2320.3" as="targetPoint" />
          </mxGeometry>
        </mxCell>
        <mxCell id="yzspcTBZxFpjvbG_T-uf-732" style="vsdxID=52;edgeStyle=none;startArrow=none;endArrow=none;startSize=5;endSize=5;strokeColor=#000000;spacingTop=0;spacingBottom=0;spacingLeft=0;spacingRight=0;verticalAlign=middle;html=1;labelBackgroundColor=#ffffff;rounded=0;strokeWidth=3;" parent="1" edge="1">
          <mxGeometry relative="1" as="geometry">
            <mxPoint x="8" as="offset" />
            <Array as="points" />
            <mxPoint x="3280" y="2320.3" as="sourcePoint" />
            <mxPoint x="3280" y="20.299999999999997" as="targetPoint" />
          </mxGeometry>
        </mxCell>
        <mxCell id="T3I_mIs7FCejqoUUapdV-1" value="" style="group;fontFamily=Times New Roman;" parent="1" vertex="1" connectable="0">
          <mxGeometry x="70" y="20" width="3230" height="2319.2939557522122" as="geometry" />
        </mxCell>
        <mxCell id="T3I_mIs7FCejqoUUapdV-49" style="vsdxID=56;edgeStyle=none;startArrow=none;endArrow=none;startSize=5;endSize=5;strokeColor=#000000;spacingTop=0;spacingBottom=0;spacingLeft=0;spacingRight=0;verticalAlign=middle;html=1;labelBackgroundColor=#ffffff;rounded=0;strokeWidth=3;" parent="T3I_mIs7FCejqoUUapdV-1" edge="1">
          <mxGeometry relative="1" as="geometry">
            <mxPoint as="offset" />
            <Array as="points" />
            <mxPoint as="sourcePoint" />
            <mxPoint x="3201.760922834533" as="targetPoint" />
          </mxGeometry>
        </mxCell>
        <mxCell id="T3I_mIs7FCejqoUUapdV-50" style="vsdxID=55;edgeStyle=none;startArrow=none;endArrow=none;startSize=5;endSize=5;strokeColor=#000000;spacingTop=0;spacingBottom=0;spacingLeft=0;spacingRight=0;verticalAlign=middle;html=1;labelBackgroundColor=#ffffff;rounded=0;strokeWidth=3;" parent="T3I_mIs7FCejqoUUapdV-1" edge="1">
          <mxGeometry relative="1" as="geometry">
            <mxPoint x="8" as="offset" />
            <Array as="points" />
            <mxPoint y="2300" as="sourcePoint" />
            <mxPoint as="targetPoint" />
          </mxGeometry>
        </mxCell>
        <mxCell id="T3I_mIs7FCejqoUUapdV-51" style="vsdxID=54;edgeStyle=none;startArrow=none;endArrow=none;startSize=5;endSize=5;strokeColor=#000000;spacingTop=0;spacingBottom=0;spacingLeft=0;spacingRight=0;verticalAlign=middle;html=1;labelBackgroundColor=#ffffff;rounded=0;strokeWidth=3;" parent="T3I_mIs7FCejqoUUapdV-1" edge="1">
          <mxGeometry relative="1" as="geometry">
            <mxPoint as="offset" />
            <Array as="points" />
            <mxPoint y="2300" as="sourcePoint" />
            <mxPoint x="3201.760922834533" y="2300" as="targetPoint" />
          </mxGeometry>
        </mxCell>
        <mxCell id="yzspcTBZxFpjvbG_T-uf-737" value="&lt;p style=&quot;margin-left: 0 ; margin-right: 0 ; margin-top: 0px ; margin-bottom: 0px ; text-indent: 0 ; direction: ltr&quot;&gt;&lt;font face=&quot;times new roman&quot;&gt;&lt;i&gt;Шамына А.Ю.&lt;/i&gt;&lt;/font&gt;&lt;/p&gt;" style="verticalAlign=middle;align=center;vsdxID=41;fillColor=none;gradientColor=none;shape=stencil(nZBLDoAgDERP0z3SIyjew0SURgSD+Lu9kMZoXLhwN9O+tukAlrNpJg1SzDH4QW/URgNYgZTkjA4UkwJUgGXng+6DX1zLfmoymdXo17xh5zmRJ6Q42BWCfc2oJfdAr+Yv+AP9Cb7OJ3H/2JG1HNGz/84klThPVCc=);strokeColor=none;labelBackgroundColor=none;rounded=0;html=1;whiteSpace=wrap;" parent="T3I_mIs7FCejqoUUapdV-1" vertex="1">
          <mxGeometry x="2538" y="2198.2300884955757" width="91.71974522292992" height="20.35398230088496" as="geometry" />
        </mxCell>
        <mxCell id="yzspcTBZxFpjvbG_T-uf-733" value="&lt;p style=&quot;margin-left: 0 ; margin-right: 0 ; margin-top: 0px ; margin-bottom: 0px ; text-indent: 0 ; direction: ltr&quot;&gt;&lt;font style=&quot;font-family: &amp;quot;times new roman&amp;quot;; color: rgb(0, 0, 0); direction: ltr; letter-spacing: 0px; line-height: 140%; opacity: 1; font-size: 12px;&quot;&gt;&lt;i style=&quot;&quot;&gt;Руковод.&lt;/i&gt;&lt;/font&gt;&lt;font style=&quot;font-size: 14px ; font-family: &amp;quot;times new roman&amp;quot; ; color: #000000 ; direction: ltr ; letter-spacing: 0px ; line-height: 140% ; opacity: 1&quot;&gt;&lt;br&gt;&lt;/font&gt;&lt;/p&gt;" style="verticalAlign=middle;align=center;vsdxID=41;fillColor=none;gradientColor=none;shape=stencil(nZBLDoAgDERP0z3SIyjew0SURgSD+Lu9kMZoXLhwN9O+tukAlrNpJg1SzDH4QW/URgNYgZTkjA4UkwJUgGXng+6DX1zLfmoymdXo17xh5zmRJ6Q42BWCfc2oJfdAr+Yv+AP9Cb7OJ3H/2JG1HNGz/84klThPVCc=);strokeColor=none;labelBackgroundColor=none;rounded=0;html=1;whiteSpace=wrap;" parent="T3I_mIs7FCejqoUUapdV-1" vertex="1">
          <mxGeometry x="2460.664203821656" y="2198.2300884955757" width="71.3375796178344" height="20.35398230088496" as="geometry" />
        </mxCell>
        <mxCell id="yzspcTBZxFpjvbG_T-uf-736" value="&lt;p style=&quot;margin-left: 0 ; margin-right: 0 ; margin-top: 0px ; margin-bottom: 0px ; text-indent: 0 ; direction: ltr&quot;&gt;&lt;font style=&quot;font-size: 12px ; font-family: &amp;#34;times new roman&amp;#34; ; color: #000000 ; direction: ltr ; letter-spacing: 0px ; line-height: 140% ; opacity: 1&quot;&gt;&lt;i&gt;Дата&lt;/i&gt;&lt;/font&gt;&lt;font style=&quot;font-size: 12px ; font-family: &amp;#34;times new roman&amp;#34; ; color: #000000 ; direction: ltr ; letter-spacing: 0px ; line-height: 140% ; opacity: 1&quot;&gt;&lt;br&gt;&lt;/font&gt;&lt;/p&gt;" style="verticalAlign=middle;align=center;vsdxID=45;fillColor=none;gradientColor=none;shape=stencil(nZBLDoAgDERP0z3SIyjew0SURgSD+Lu9kMZoXLhwN9O+tukAlrNpJg1SzDH4QW/URgNYgZTkjA4UkwJUgGXng+6DX1zLfmoymdXo17xh5zmRJ6Q42BWCfc2oJfdAr+Yv+AP9Cb7OJ3H/2JG1HNGz/84klThPVCc=);strokeColor=none;labelBackgroundColor=none;rounded=0;html=1;whiteSpace=wrap;" parent="T3I_mIs7FCejqoUUapdV-1" vertex="1">
          <mxGeometry x="2694.9980254777074" y="2159" width="40.76433121019108" height="20.35398230088496" as="geometry" />
        </mxCell>
        <mxCell id="yzspcTBZxFpjvbG_T-uf-734" value="&lt;p style=&quot;margin-left: 0 ; margin-right: 0 ; margin-top: 0px ; margin-bottom: 0px ; text-indent: 0 ; direction: ltr&quot;&gt;&lt;font style=&quot;font-size: 12px ; font-family: &amp;#34;times new roman&amp;#34; ; color: #000000 ; direction: ltr ; letter-spacing: 0px ; line-height: 140% ; opacity: 1&quot;&gt;&lt;i&gt;Лист&lt;/i&gt;&lt;/font&gt;&lt;font style=&quot;font-size: 12px ; font-family: &amp;#34;times new roman&amp;#34; ; color: #000000 ; direction: ltr ; letter-spacing: 0px ; line-height: 140% ; opacity: 1&quot;&gt;&lt;br&gt;&lt;/font&gt;&lt;/p&gt;" style="verticalAlign=middle;align=center;vsdxID=45;fillColor=none;gradientColor=none;shape=stencil(nZBLDoAgDERP0z3SIyjew0SURgSD+Lu9kMZoXLhwN9O+tukAlrNpJg1SzDH4QW/URgNYgZTkjA4UkwJUgGXng+6DX1zLfmoymdXo17xh5zmRJ6Q42BWCfc2oJfdAr+Yv+AP9Cb7OJ3H/2JG1HNGz/84klThPVCc=);strokeColor=none;labelBackgroundColor=none;rounded=0;html=1;whiteSpace=wrap;" parent="T3I_mIs7FCejqoUUapdV-1" vertex="1">
          <mxGeometry x="2488" y="2159" width="40.76433121019108" height="20.35398230088496" as="geometry" />
        </mxCell>
        <mxCell id="yzspcTBZxFpjvbG_T-uf-735" value="&lt;p style=&quot;margin-left: 0 ; margin-right: 0 ; margin-top: 0px ; margin-bottom: 0px ; text-indent: 0 ; direction: ltr&quot;&gt;&lt;font style=&quot;font-family: &amp;quot;times new roman&amp;quot;; color: rgb(0, 0, 0); direction: ltr; letter-spacing: 0px; line-height: 140%; opacity: 1; font-size: 12px;&quot;&gt;&lt;i style=&quot;&quot;&gt;№ докум.&lt;/i&gt;&lt;/font&gt;&lt;font style=&quot;font-size: 12px ; font-family: &amp;quot;times new roman&amp;quot; ; color: #000000 ; direction: ltr ; letter-spacing: 0px ; line-height: 140% ; opacity: 1&quot;&gt;&lt;br&gt;&lt;/font&gt;&lt;/p&gt;" style="verticalAlign=middle;align=center;vsdxID=45;fillColor=none;gradientColor=none;shape=stencil(nZBLDoAgDERP0z3SIyjew0SURgSD+Lu9kMZoXLhwN9O+tukAlrNpJg1SzDH4QW/URgNYgZTkjA4UkwJUgGXng+6DX1zLfmoymdXo17xh5zmRJ6Q42BWCfc2oJfdAr+Yv+AP9Cb7OJ3H/2JG1HNGz/84klThPVCc=);strokeColor=none;labelBackgroundColor=none;rounded=0;html=1;whiteSpace=wrap;" parent="T3I_mIs7FCejqoUUapdV-1" vertex="1">
          <mxGeometry x="2534.00178343949" y="2159" width="91.71974522292992" height="20.35398230088496" as="geometry" />
        </mxCell>
        <mxCell id="jxEhJfdVXEvmbCARdvym-54" value="" style="edgeStyle=orthogonalEdgeStyle;rounded=0;orthogonalLoop=1;jettySize=auto;html=1;" edge="1" parent="T3I_mIs7FCejqoUUapdV-1" source="jxEhJfdVXEvmbCARdvym-52" target="jxEhJfdVXEvmbCARdvym-53">
          <mxGeometry relative="1" as="geometry" />
        </mxCell>
        <mxCell id="jxEhJfdVXEvmbCARdvym-52" value="&lt;font face=&quot;Times New Roman&quot;&gt;&lt;span style=&quot;font-size: 36px;&quot;&gt;Начало&amp;nbsp;&lt;/span&gt;&lt;/font&gt;&lt;div&gt;&lt;font face=&quot;Times New Roman&quot;&gt;&lt;span style=&quot;font-size: 36px;&quot;&gt;addUserConfig&lt;/span&gt;&lt;/font&gt;&lt;/div&gt;" style="strokeWidth=2;html=1;shape=mxgraph.flowchart.terminator;whiteSpace=wrap;" vertex="1" parent="T3I_mIs7FCejqoUUapdV-1">
          <mxGeometry x="410.66" y="30" width="420" height="140" as="geometry" />
        </mxCell>
        <mxCell id="jxEhJfdVXEvmbCARdvym-53" value="&lt;font style=&quot;font-size: 36px;&quot; face=&quot;Times New Roman&quot;&gt;Сохранение в JSON выбранных опций&lt;/font&gt;" style="whiteSpace=wrap;html=1;strokeWidth=2;" vertex="1" parent="T3I_mIs7FCejqoUUapdV-1">
          <mxGeometry x="420.66" y="230" width="400" height="140" as="geometry" />
        </mxCell>
        <mxCell id="jxEhJfdVXEvmbCARdvym-59" value="&lt;span style=&quot;font-family: &amp;quot;Times New Roman&amp;quot;;&quot;&gt;&lt;font style=&quot;font-size: 36px;&quot;&gt;Получение из localStorage id текущей модели&lt;/font&gt;&lt;/span&gt;" style="whiteSpace=wrap;html=1;strokeWidth=2;" vertex="1" parent="T3I_mIs7FCejqoUUapdV-1">
          <mxGeometry x="420.66" y="430" width="400" height="140" as="geometry" />
        </mxCell>
        <mxCell id="jxEhJfdVXEvmbCARdvym-60" value="" style="edgeStyle=orthogonalEdgeStyle;rounded=0;orthogonalLoop=1;jettySize=auto;html=1;" edge="1" parent="T3I_mIs7FCejqoUUapdV-1" source="jxEhJfdVXEvmbCARdvym-53" target="jxEhJfdVXEvmbCARdvym-59">
          <mxGeometry relative="1" as="geometry" />
        </mxCell>
        <mxCell id="jxEhJfdVXEvmbCARdvym-73" value="&lt;span style=&quot;font-size: 36px;&quot;&gt;1&lt;/span&gt;" style="ellipse;whiteSpace=wrap;html=1;strokeWidth=2;" vertex="1" parent="T3I_mIs7FCejqoUUapdV-1">
          <mxGeometry x="580.66" y="1630" width="80" height="80" as="geometry" />
        </mxCell>
        <mxCell id="jxEhJfdVXEvmbCARdvym-78" value="" style="edgeStyle=orthogonalEdgeStyle;rounded=0;orthogonalLoop=1;jettySize=auto;html=1;" edge="1" parent="T3I_mIs7FCejqoUUapdV-1" source="jxEhJfdVXEvmbCARdvym-76" target="jxEhJfdVXEvmbCARdvym-77">
          <mxGeometry relative="1" as="geometry" />
        </mxCell>
        <mxCell id="jxEhJfdVXEvmbCARdvym-76" value="&lt;font style=&quot;font-size: 36px;&quot;&gt;1&lt;/font&gt;" style="ellipse;whiteSpace=wrap;html=1;strokeWidth=2;" vertex="1" parent="T3I_mIs7FCejqoUUapdV-1">
          <mxGeometry x="1480.66" y="19.82" width="80" height="80" as="geometry" />
        </mxCell>
        <mxCell id="jxEhJfdVXEvmbCARdvym-77" value="&lt;span style=&quot;font-family: &amp;quot;Times New Roman&amp;quot;;&quot;&gt;&lt;font style=&quot;font-size: 36px;&quot;&gt;Формирование тела запроса, состоящего из id модели и объекта опций пользователя&lt;/font&gt;&lt;/span&gt;" style="whiteSpace=wrap;html=1;strokeWidth=2;" vertex="1" parent="T3I_mIs7FCejqoUUapdV-1">
          <mxGeometry x="1320.66" y="199.82000000000002" width="400" height="180" as="geometry" />
        </mxCell>
        <mxCell id="jxEhJfdVXEvmbCARdvym-83" style="edgeStyle=orthogonalEdgeStyle;rounded=0;orthogonalLoop=1;jettySize=auto;html=1;" edge="1" parent="T3I_mIs7FCejqoUUapdV-1" source="jxEhJfdVXEvmbCARdvym-81">
          <mxGeometry relative="1" as="geometry">
            <mxPoint x="1190.66" y="849.8199999999999" as="targetPoint" />
          </mxGeometry>
        </mxCell>
        <mxCell id="jxEhJfdVXEvmbCARdvym-85" style="edgeStyle=orthogonalEdgeStyle;rounded=0;orthogonalLoop=1;jettySize=auto;html=1;" edge="1" parent="T3I_mIs7FCejqoUUapdV-1" source="jxEhJfdVXEvmbCARdvym-81">
          <mxGeometry relative="1" as="geometry">
            <mxPoint x="1900.66" y="819.8199999999999" as="targetPoint" />
          </mxGeometry>
        </mxCell>
        <mxCell id="jxEhJfdVXEvmbCARdvym-81" value="&lt;span&gt;&lt;font style=&quot;font-size: 24px;&quot; face=&quot;Times New Roman&quot;&gt;Если токен существует&lt;/font&gt;&lt;/span&gt;" style="rhombus;whiteSpace=wrap;html=1;strokeWidth=2;" vertex="1" parent="T3I_mIs7FCejqoUUapdV-1">
          <mxGeometry x="1330.66" y="649.8199999999999" width="380" height="140" as="geometry" />
        </mxCell>
        <mxCell id="jxEhJfdVXEvmbCARdvym-91" value="" style="edgeStyle=orthogonalEdgeStyle;rounded=0;orthogonalLoop=1;jettySize=auto;html=1;" edge="1" parent="T3I_mIs7FCejqoUUapdV-1" source="jxEhJfdVXEvmbCARdvym-87" target="jxEhJfdVXEvmbCARdvym-90">
          <mxGeometry relative="1" as="geometry" />
        </mxCell>
        <mxCell id="jxEhJfdVXEvmbCARdvym-87" value="&lt;font style=&quot;font-size: 36px;&quot; face=&quot;Times New Roman&quot;&gt;Вывод сообщения об обязательной авторизации&lt;/font&gt;" style="shape=parallelogram;perimeter=parallelogramPerimeter;whiteSpace=wrap;html=1;fixedSize=1;strokeWidth=2;" vertex="1" parent="T3I_mIs7FCejqoUUapdV-1">
          <mxGeometry x="1040.66" y="849.8199999999999" width="320" height="140" as="geometry" />
        </mxCell>
        <mxCell id="jxEhJfdVXEvmbCARdvym-90" value="&lt;span style=&quot;font-size: 36px;&quot;&gt;2&lt;/span&gt;" style="ellipse;whiteSpace=wrap;html=1;strokeWidth=2;" vertex="1" parent="T3I_mIs7FCejqoUUapdV-1">
          <mxGeometry x="1160.66" y="1079.8200000000002" width="80" height="80" as="geometry" />
        </mxCell>
        <mxCell id="jxEhJfdVXEvmbCARdvym-94" value="" style="edgeStyle=orthogonalEdgeStyle;rounded=0;orthogonalLoop=1;jettySize=auto;html=1;" edge="1" parent="T3I_mIs7FCejqoUUapdV-1" source="jxEhJfdVXEvmbCARdvym-92" target="jxEhJfdVXEvmbCARdvym-93">
          <mxGeometry relative="1" as="geometry" />
        </mxCell>
        <mxCell id="jxEhJfdVXEvmbCARdvym-92" value="&lt;span style=&quot;font-family: &amp;quot;Times New Roman&amp;quot;;&quot;&gt;&lt;font style=&quot;font-size: 36px;&quot;&gt;Обращение к API верификации для проверки токена и получение ответа&lt;/font&gt;&lt;/span&gt;" style="whiteSpace=wrap;html=1;strokeWidth=2;" vertex="1" parent="T3I_mIs7FCejqoUUapdV-1">
          <mxGeometry x="1710.66" y="819.8199999999999" width="400" height="190" as="geometry" />
        </mxCell>
        <mxCell id="jxEhJfdVXEvmbCARdvym-95" style="edgeStyle=orthogonalEdgeStyle;rounded=0;orthogonalLoop=1;jettySize=auto;html=1;" edge="1" parent="T3I_mIs7FCejqoUUapdV-1" source="jxEhJfdVXEvmbCARdvym-93">
          <mxGeometry relative="1" as="geometry">
            <mxPoint x="2260.66" y="1219.8200000000002" as="targetPoint" />
          </mxGeometry>
        </mxCell>
        <mxCell id="jxEhJfdVXEvmbCARdvym-98" style="edgeStyle=orthogonalEdgeStyle;rounded=0;orthogonalLoop=1;jettySize=auto;html=1;entryX=0.5;entryY=0;entryDx=0;entryDy=0;" edge="1" parent="T3I_mIs7FCejqoUUapdV-1" source="jxEhJfdVXEvmbCARdvym-93" target="jxEhJfdVXEvmbCARdvym-100">
          <mxGeometry relative="1" as="geometry">
            <mxPoint x="1550.66" y="1229.8200000000002" as="targetPoint" />
            <Array as="points">
              <mxPoint x="1560" y="1139.8200000000002" />
            </Array>
          </mxGeometry>
        </mxCell>
        <mxCell id="jxEhJfdVXEvmbCARdvym-93" value="&lt;span&gt;&lt;font style=&quot;font-size: 24px;&quot; face=&quot;Times New Roman&quot;&gt;Если токен валиден&lt;/font&gt;&lt;/span&gt;" style="rhombus;whiteSpace=wrap;html=1;strokeWidth=2;" vertex="1" parent="T3I_mIs7FCejqoUUapdV-1">
          <mxGeometry x="1720.66" y="1069.8200000000002" width="380" height="140" as="geometry" />
        </mxCell>
        <mxCell id="jxEhJfdVXEvmbCARdvym-172" value="" style="edgeStyle=orthogonalEdgeStyle;rounded=0;orthogonalLoop=1;jettySize=auto;html=1;" edge="1" parent="T3I_mIs7FCejqoUUapdV-1" source="jxEhJfdVXEvmbCARdvym-97" target="jxEhJfdVXEvmbCARdvym-171">
          <mxGeometry relative="1" as="geometry" />
        </mxCell>
        <mxCell id="jxEhJfdVXEvmbCARdvym-97" value="&lt;span style=&quot;font-family: &amp;quot;Times New Roman&amp;quot;;&quot;&gt;&lt;font style=&quot;font-size: 36px;&quot;&gt;Обращение к API корзины для добавления в корзину конфигурации пользователя&amp;nbsp;&lt;/font&gt;&lt;/span&gt;" style="whiteSpace=wrap;html=1;strokeWidth=2;" vertex="1" parent="T3I_mIs7FCejqoUUapdV-1">
          <mxGeometry x="2060.66" y="1219.8200000000002" width="400" height="200" as="geometry" />
        </mxCell>
        <mxCell id="jxEhJfdVXEvmbCARdvym-99" value="&lt;span style=&quot;color: rgb(0, 0, 0); font-family: Helvetica; font-size: 36px; font-style: normal; font-variant-ligatures: normal; font-variant-caps: normal; font-weight: 400; letter-spacing: normal; orphans: 2; text-align: center; text-indent: 0px; text-transform: none; widows: 2; word-spacing: 0px; -webkit-text-stroke-width: 0px; white-space: nowrap; background-color: rgb(251, 251, 251); text-decoration-thickness: initial; text-decoration-style: initial; text-decoration-color: initial; display: inline !important; float: none;&quot;&gt;нет&lt;/span&gt;" style="text;whiteSpace=wrap;html=1;" vertex="1" parent="T3I_mIs7FCejqoUUapdV-1">
          <mxGeometry x="1600.66" y="1079.8200000000002" width="90" height="70" as="geometry" />
        </mxCell>
        <mxCell id="jxEhJfdVXEvmbCARdvym-102" value="" style="edgeStyle=orthogonalEdgeStyle;rounded=0;orthogonalLoop=1;jettySize=auto;html=1;" edge="1" parent="T3I_mIs7FCejqoUUapdV-1" source="jxEhJfdVXEvmbCARdvym-100" target="jxEhJfdVXEvmbCARdvym-101">
          <mxGeometry relative="1" as="geometry" />
        </mxCell>
        <mxCell id="jxEhJfdVXEvmbCARdvym-100" value="&lt;font style=&quot;font-size: 36px;&quot; face=&quot;Times New Roman&quot;&gt;&lt;font&gt;Обращение к API для обновления токена, указывая credentrials: include для отправки кук с refresh токеном&lt;/font&gt;&lt;span style=&quot;color: light-dark(rgb(0, 0, 0), rgb(255, 255, 255));&quot;&gt;&amp;nbsp;&lt;/span&gt;&lt;/font&gt;" style="whiteSpace=wrap;html=1;strokeWidth=2;align=center;" vertex="1" parent="T3I_mIs7FCejqoUUapdV-1">
          <mxGeometry x="1360.66" y="1189.8200000000002" width="400" height="230" as="geometry" />
        </mxCell>
        <mxCell id="jxEhJfdVXEvmbCARdvym-64" value="" style="edgeStyle=orthogonalEdgeStyle;rounded=0;orthogonalLoop=1;jettySize=auto;html=1;" edge="1" parent="T3I_mIs7FCejqoUUapdV-1" source="jxEhJfdVXEvmbCARdvym-61" target="jxEhJfdVXEvmbCARdvym-63">
          <mxGeometry relative="1" as="geometry" />
        </mxCell>
        <mxCell id="jxEhJfdVXEvmbCARdvym-61" value="&lt;font face=&quot;Times New Roman&quot;&gt;&lt;span style=&quot;font-size: 36px;&quot;&gt;Сохранение выбранной опции экстерьера в json&lt;/span&gt;&lt;/font&gt;" style="whiteSpace=wrap;html=1;strokeWidth=2;" vertex="1" parent="T3I_mIs7FCejqoUUapdV-1">
          <mxGeometry x="420.66" y="650" width="400" height="120" as="geometry" />
        </mxCell>
        <mxCell id="jxEhJfdVXEvmbCARdvym-62" value="" style="edgeStyle=orthogonalEdgeStyle;rounded=0;orthogonalLoop=1;jettySize=auto;html=1;" edge="1" parent="T3I_mIs7FCejqoUUapdV-1" source="jxEhJfdVXEvmbCARdvym-59" target="jxEhJfdVXEvmbCARdvym-61">
          <mxGeometry relative="1" as="geometry" />
        </mxCell>
        <mxCell id="jxEhJfdVXEvmbCARdvym-66" value="" style="edgeStyle=orthogonalEdgeStyle;rounded=0;orthogonalLoop=1;jettySize=auto;html=1;" edge="1" parent="T3I_mIs7FCejqoUUapdV-1" source="jxEhJfdVXEvmbCARdvym-63" target="jxEhJfdVXEvmbCARdvym-65">
          <mxGeometry relative="1" as="geometry" />
        </mxCell>
        <mxCell id="jxEhJfdVXEvmbCARdvym-63" value="&lt;font face=&quot;Times New Roman&quot;&gt;&lt;span style=&quot;font-size: 36px;&quot;&gt;Сохранение выбранной опции интерьера в json&lt;/span&gt;&lt;/font&gt;" style="whiteSpace=wrap;html=1;strokeWidth=2;" vertex="1" parent="T3I_mIs7FCejqoUUapdV-1">
          <mxGeometry x="420.66" y="850" width="400" height="120" as="geometry" />
        </mxCell>
        <mxCell id="jxEhJfdVXEvmbCARdvym-68" value="" style="edgeStyle=orthogonalEdgeStyle;rounded=0;orthogonalLoop=1;jettySize=auto;html=1;" edge="1" parent="T3I_mIs7FCejqoUUapdV-1" source="jxEhJfdVXEvmbCARdvym-65" target="jxEhJfdVXEvmbCARdvym-67">
          <mxGeometry relative="1" as="geometry" />
        </mxCell>
        <mxCell id="jxEhJfdVXEvmbCARdvym-65" value="&lt;font face=&quot;Times New Roman&quot;&gt;&lt;span style=&quot;font-size: 36px;&quot;&gt;Сохранение выбранной опции дисков в json&lt;/span&gt;&lt;/font&gt;" style="whiteSpace=wrap;html=1;strokeWidth=2;" vertex="1" parent="T3I_mIs7FCejqoUUapdV-1">
          <mxGeometry x="420.66" y="1050" width="400" height="120" as="geometry" />
        </mxCell>
        <mxCell id="jxEhJfdVXEvmbCARdvym-70" value="" style="edgeStyle=orthogonalEdgeStyle;rounded=0;orthogonalLoop=1;jettySize=auto;html=1;" edge="1" parent="T3I_mIs7FCejqoUUapdV-1" source="jxEhJfdVXEvmbCARdvym-67" target="jxEhJfdVXEvmbCARdvym-69">
          <mxGeometry relative="1" as="geometry" />
        </mxCell>
        <mxCell id="jxEhJfdVXEvmbCARdvym-67" value="&lt;font face=&quot;Times New Roman&quot;&gt;&lt;span style=&quot;font-size: 36px;&quot;&gt;Сохранение выбранной опции пакета в json&lt;/span&gt;&lt;/font&gt;" style="whiteSpace=wrap;html=1;strokeWidth=2;" vertex="1" parent="T3I_mIs7FCejqoUUapdV-1">
          <mxGeometry x="420.66" y="1250" width="400" height="120" as="geometry" />
        </mxCell>
        <mxCell id="jxEhJfdVXEvmbCARdvym-74" value="" style="edgeStyle=orthogonalEdgeStyle;rounded=0;orthogonalLoop=1;jettySize=auto;html=1;" edge="1" parent="T3I_mIs7FCejqoUUapdV-1" source="jxEhJfdVXEvmbCARdvym-69" target="jxEhJfdVXEvmbCARdvym-73">
          <mxGeometry relative="1" as="geometry" />
        </mxCell>
        <mxCell id="jxEhJfdVXEvmbCARdvym-69" value="&lt;font face=&quot;Times New Roman&quot;&gt;&lt;span style=&quot;font-size: 36px;&quot;&gt;Сохранение выбранной опции выхлопа в json&lt;/span&gt;&lt;/font&gt;" style="whiteSpace=wrap;html=1;strokeWidth=2;" vertex="1" parent="T3I_mIs7FCejqoUUapdV-1">
          <mxGeometry x="420.66" y="1450" width="400" height="120" as="geometry" />
        </mxCell>
        <mxCell id="jxEhJfdVXEvmbCARdvym-82" value="" style="edgeStyle=orthogonalEdgeStyle;rounded=0;orthogonalLoop=1;jettySize=auto;html=1;" edge="1" parent="T3I_mIs7FCejqoUUapdV-1" source="jxEhJfdVXEvmbCARdvym-79" target="jxEhJfdVXEvmbCARdvym-81">
          <mxGeometry relative="1" as="geometry" />
        </mxCell>
        <mxCell id="jxEhJfdVXEvmbCARdvym-79" value="&lt;span style=&quot;font-family: &amp;quot;Times New Roman&amp;quot;;&quot;&gt;&lt;font style=&quot;font-size: 36px;&quot;&gt;Получение токена из localStorage&lt;/font&gt;&lt;/span&gt;" style="whiteSpace=wrap;html=1;strokeWidth=2;" vertex="1" parent="T3I_mIs7FCejqoUUapdV-1">
          <mxGeometry x="1320.66" y="459.82" width="400" height="120" as="geometry" />
        </mxCell>
        <mxCell id="jxEhJfdVXEvmbCARdvym-80" value="" style="edgeStyle=orthogonalEdgeStyle;rounded=0;orthogonalLoop=1;jettySize=auto;html=1;" edge="1" parent="T3I_mIs7FCejqoUUapdV-1" source="jxEhJfdVXEvmbCARdvym-77" target="jxEhJfdVXEvmbCARdvym-79">
          <mxGeometry relative="1" as="geometry" />
        </mxCell>
        <mxCell id="jxEhJfdVXEvmbCARdvym-84" value="&lt;font style=&quot;font-size: 36px;&quot;&gt;нет&lt;/font&gt;" style="text;html=1;align=center;verticalAlign=middle;resizable=0;points=[];autosize=1;strokeColor=none;fillColor=none;" vertex="1" parent="T3I_mIs7FCejqoUUapdV-1">
          <mxGeometry x="1230.66" y="662.8199999999999" width="80" height="60" as="geometry" />
        </mxCell>
        <mxCell id="jxEhJfdVXEvmbCARdvym-86" value="&lt;font style=&quot;font-size: 36px;&quot;&gt;да&lt;/font&gt;" style="text;html=1;align=center;verticalAlign=middle;resizable=0;points=[];autosize=1;strokeColor=none;fillColor=none;" vertex="1" parent="T3I_mIs7FCejqoUUapdV-1">
          <mxGeometry x="1780.66" y="652.8199999999999" width="60" height="60" as="geometry" />
        </mxCell>
        <mxCell id="jxEhJfdVXEvmbCARdvym-96" value="&lt;span style=&quot;font-size: 36px;&quot;&gt;да&lt;/span&gt;" style="text;html=1;align=center;verticalAlign=middle;resizable=0;points=[];autosize=1;strokeColor=none;fillColor=none;" vertex="1" parent="T3I_mIs7FCejqoUUapdV-1">
          <mxGeometry x="2140.66" y="1072.8200000000002" width="60" height="60" as="geometry" />
        </mxCell>
        <mxCell id="jxEhJfdVXEvmbCARdvym-104" style="edgeStyle=orthogonalEdgeStyle;rounded=0;orthogonalLoop=1;jettySize=auto;html=1;" edge="1" parent="T3I_mIs7FCejqoUUapdV-1" source="jxEhJfdVXEvmbCARdvym-101">
          <mxGeometry relative="1" as="geometry">
            <mxPoint x="1220" y="1609.8200000000002" as="targetPoint" />
          </mxGeometry>
        </mxCell>
        <mxCell id="jxEhJfdVXEvmbCARdvym-162" style="edgeStyle=orthogonalEdgeStyle;rounded=0;orthogonalLoop=1;jettySize=auto;html=1;entryX=0.5;entryY=0;entryDx=0;entryDy=0;" edge="1" parent="T3I_mIs7FCejqoUUapdV-1" source="jxEhJfdVXEvmbCARdvym-101" target="jxEhJfdVXEvmbCARdvym-165">
          <mxGeometry relative="1" as="geometry">
            <mxPoint x="1860" y="1629.8200000000002" as="targetPoint" />
            <Array as="points">
              <mxPoint x="1860" y="1529.8200000000002" />
            </Array>
          </mxGeometry>
        </mxCell>
        <mxCell id="jxEhJfdVXEvmbCARdvym-101" value="&lt;font style=&quot;font-size: 24px;&quot; face=&quot;Times New Roman&quot;&gt;Если токен успешно обноввлен&lt;/font&gt;" style="rhombus;whiteSpace=wrap;html=1;strokeWidth=2;" vertex="1" parent="T3I_mIs7FCejqoUUapdV-1">
          <mxGeometry x="1370.66" y="1459.8200000000002" width="380" height="140" as="geometry" />
        </mxCell>
        <mxCell id="jxEhJfdVXEvmbCARdvym-105" value="&lt;span style=&quot;color: rgb(0, 0, 0); font-family: Helvetica; font-size: 36px; font-style: normal; font-variant-ligatures: normal; font-variant-caps: normal; font-weight: 400; letter-spacing: normal; orphans: 2; text-align: center; text-indent: 0px; text-transform: none; widows: 2; word-spacing: 0px; -webkit-text-stroke-width: 0px; white-space: nowrap; background-color: rgb(251, 251, 251); text-decoration-thickness: initial; text-decoration-style: initial; text-decoration-color: initial; display: inline !important; float: none;&quot;&gt;нет&lt;/span&gt;" style="text;whiteSpace=wrap;html=1;" vertex="1" parent="T3I_mIs7FCejqoUUapdV-1">
          <mxGeometry x="1260" y="1479.8200000000002" width="90" height="70" as="geometry" />
        </mxCell>
        <mxCell id="jxEhJfdVXEvmbCARdvym-159" value="&lt;font style=&quot;font-size: 36px;&quot; face=&quot;Times New Roman&quot;&gt;Вывод сообщения об обязательной авторизации&lt;/font&gt;" style="shape=parallelogram;perimeter=parallelogramPerimeter;whiteSpace=wrap;html=1;fixedSize=1;strokeWidth=2;" vertex="1" parent="T3I_mIs7FCejqoUUapdV-1">
          <mxGeometry x="1060" y="1609.8200000000002" width="320" height="140" as="geometry" />
        </mxCell>
        <mxCell id="jxEhJfdVXEvmbCARdvym-160" value="&lt;font style=&quot;font-size: 36px;&quot;&gt;2&lt;/font&gt;" style="ellipse;whiteSpace=wrap;html=1;strokeWidth=2;" vertex="1" parent="T3I_mIs7FCejqoUUapdV-1">
          <mxGeometry x="1180" y="1799.8200000000002" width="80" height="80" as="geometry" />
        </mxCell>
        <mxCell id="jxEhJfdVXEvmbCARdvym-161" value="" style="edgeStyle=orthogonalEdgeStyle;rounded=0;orthogonalLoop=1;jettySize=auto;html=1;" edge="1" parent="T3I_mIs7FCejqoUUapdV-1" source="jxEhJfdVXEvmbCARdvym-159" target="jxEhJfdVXEvmbCARdvym-160">
          <mxGeometry relative="1" as="geometry" />
        </mxCell>
        <mxCell id="jxEhJfdVXEvmbCARdvym-164" value="&lt;span style=&quot;font-size: 36px;&quot;&gt;да&lt;/span&gt;" style="text;html=1;align=center;verticalAlign=middle;resizable=0;points=[];autosize=1;strokeColor=none;fillColor=none;" vertex="1" parent="T3I_mIs7FCejqoUUapdV-1">
          <mxGeometry x="1769.9999999999998" y="1469.8200000000002" width="60" height="60" as="geometry" />
        </mxCell>
        <mxCell id="jxEhJfdVXEvmbCARdvym-165" value="&lt;span style=&quot;font-family: &amp;quot;Times New Roman&amp;quot;;&quot;&gt;&lt;font style=&quot;font-size: 36px;&quot;&gt;Сохранение нового access токена в localStorage&lt;/font&gt;&lt;/span&gt;" style="whiteSpace=wrap;html=1;strokeWidth=2;align=center;" vertex="1" parent="T3I_mIs7FCejqoUUapdV-1">
          <mxGeometry x="1660.66" y="1589.8200000000002" width="400" height="100" as="geometry" />
        </mxCell>
        <mxCell id="jxEhJfdVXEvmbCARdvym-170" value="" style="edgeStyle=orthogonalEdgeStyle;rounded=0;orthogonalLoop=1;jettySize=auto;html=1;" edge="1" parent="T3I_mIs7FCejqoUUapdV-1" source="jxEhJfdVXEvmbCARdvym-168" target="jxEhJfdVXEvmbCARdvym-169">
          <mxGeometry relative="1" as="geometry" />
        </mxCell>
        <mxCell id="jxEhJfdVXEvmbCARdvym-168" value="&lt;span style=&quot;font-family: &amp;quot;Times New Roman&amp;quot;;&quot;&gt;&lt;font style=&quot;font-size: 36px;&quot;&gt;Обращение к API корзины для добавления в корзину конфигурации пользователя&amp;nbsp;&lt;/font&gt;&lt;/span&gt;" style="whiteSpace=wrap;html=1;strokeWidth=2;" vertex="1" parent="T3I_mIs7FCejqoUUapdV-1">
          <mxGeometry x="1660.6599999999999" y="1729.8200000000002" width="400" height="200" as="geometry" />
        </mxCell>
        <mxCell id="jxEhJfdVXEvmbCARdvym-167" value="" style="edgeStyle=orthogonalEdgeStyle;rounded=0;orthogonalLoop=1;jettySize=auto;html=1;entryX=0.5;entryY=0;entryDx=0;entryDy=0;" edge="1" parent="T3I_mIs7FCejqoUUapdV-1" source="jxEhJfdVXEvmbCARdvym-165" target="jxEhJfdVXEvmbCARdvym-168">
          <mxGeometry relative="1" as="geometry">
            <mxPoint x="1870" y="1829.8200000000002" as="targetPoint" />
          </mxGeometry>
        </mxCell>
        <mxCell id="jxEhJfdVXEvmbCARdvym-169" value="&lt;font face=&quot;Times New Roman&quot;&gt;&lt;span style=&quot;font-size: 36px;&quot;&gt;Конец&amp;nbsp;&lt;/span&gt;&lt;/font&gt;&lt;div&gt;&lt;font face=&quot;Times New Roman&quot;&gt;&lt;span style=&quot;font-size: 36px;&quot;&gt;addUserConfig&lt;/span&gt;&lt;/font&gt;&lt;/div&gt;" style="strokeWidth=2;html=1;shape=mxgraph.flowchart.terminator;whiteSpace=wrap;" vertex="1" parent="T3I_mIs7FCejqoUUapdV-1">
          <mxGeometry x="1650.66" y="2019.0000000000005" width="420" height="140" as="geometry" />
        </mxCell>
        <mxCell id="jxEhJfdVXEvmbCARdvym-171" value="&lt;span style=&quot;font-size: 36px;&quot;&gt;2&lt;/span&gt;" style="ellipse;whiteSpace=wrap;html=1;strokeWidth=2;" vertex="1" parent="T3I_mIs7FCejqoUUapdV-1">
          <mxGeometry x="2220.66" y="1489.82" width="79.34" height="80" as="geometry" />
        </mxCell>
        <mxCell id="jxEhJfdVXEvmbCARdvym-174" style="edgeStyle=orthogonalEdgeStyle;rounded=0;orthogonalLoop=1;jettySize=auto;html=1;" edge="1" parent="T3I_mIs7FCejqoUUapdV-1" source="jxEhJfdVXEvmbCARdvym-173">
          <mxGeometry relative="1" as="geometry">
            <mxPoint x="1860" y="1979" as="targetPoint" />
          </mxGeometry>
        </mxCell>
        <mxCell id="jxEhJfdVXEvmbCARdvym-173" value="&lt;span style=&quot;font-size: 36px;&quot;&gt;2&lt;/span&gt;" style="ellipse;whiteSpace=wrap;html=1;strokeWidth=2;" vertex="1" parent="T3I_mIs7FCejqoUUapdV-1">
          <mxGeometry x="2090" y="1939" width="79.34" height="80" as="geometry" />
        </mxCell>
      </root>
    </mxGraphModel>
  </diagram>
</mxfile>
